<?xml version="1.0" encoding="UTF-8"?>
<!-- Generator: Adobe Illustrator 22.1.0, SVG Export Plug-In . SVG Version: 6.00 Build 0)  -->
<svg version="1.1" id="Layer_1" xmlns="http://www.w3.org/2000/svg" xmlns:xlink="http://www.w3.org/1999/xlink" x="0px" y="0px" viewBox="0 0 214 71" style="enable-background:new 0 0 214 71;" xml:space="preserve">
<style type="text/css">
	.st0{fill:#003F72;}
	.st1{fill:#FFFFFF;}
	.st2{fill:#FEFEFE;}
	.st3{fill:#C60C30;}
</style>
<g>
	<path class="st0" d="M84.6,25.2c-5.4,0-9-3.9-9-9.6c0-5.6,3.8-9.7,9.2-9.7c5.2,0,8.4,3.7,8.4,9.8c0,0.2,0,0.5,0,0.7H81   c0,3.2,1.4,4.9,3.8,4.9c1.7,0,3-1,3.4-2.7l4.9,0.4C92,23,88.9,25.2,84.6,25.2 M88,13.5c0-2.7-1.3-4.1-3.4-4.1c-2,0-3.3,1.5-3.4,4.1   H88z"/>
	<path class="st0" d="M204.7,25.2c-5.4,0-9-3.9-9-9.6c0-5.6,3.8-9.7,9.2-9.7c5.2,0,8.4,3.7,8.4,9.8c0,0.2,0,0.5,0,0.7h-12.2   c0,3.2,1.4,4.9,3.8,4.9c1.7,0,3-1,3.4-2.7l4.9,0.4C212,23,208.9,25.2,204.7,25.2 M208,13.5c0-2.7-1.3-4.1-3.4-4.1   c-2,0-3.3,1.5-3.4,4.1H208z"/>
	<polyline class="st0" points="93.7,6.4 99.5,6.4 102.1,17.1 104.7,6.4 109.4,6.4 112.1,17.3 115.2,6.4 119.5,6.4 114.2,24.7    109.4,24.7 106.4,12.8 103.4,24.7 99,24.7 93.7,6.4  "/>
	<path class="st0" d="M129.2,9.6c-2.3,0-3.9,2-4,5.9c-0.1,3.9,1.5,5.9,3.8,5.9c1.8,0,3.4-1.4,3.7-3.7l4.6,0.5   c-0.6,4.2-4,6.9-8.6,6.9c-5.4,0-9.2-3.9-9.1-9.6c0.1-5.8,4-9.7,9.8-9.7c4.4,0,7.4,2.6,7.9,6.9l-4.7,0.5   C132.3,10.9,130.8,9.6,129.2,9.6"/>
	<path class="st0" d="M150.7,21.7c-1.2,2.2-3.2,3.4-5.7,3.4c-3.8,0-6.1-2.2-6.1-5.6c0-4.3,3.9-6.6,11.7-6.6v-0.8   c0-1.8-1-2.8-2.9-2.8c-2.1,0-3.3,0.9-3.6,2.6l-4.7-0.5c0.8-3.6,3.7-5.4,8.6-5.4c5.5,0,7.6,2.1,7.6,7.1v8.1c0,1.5,0.1,2.7,0.5,3.5   h-5C150.8,23.8,150.7,22.8,150.7,21.7 M144.2,19.2c0,1.5,0.9,2.4,2.6,2.4c2.1,0,3.7-1.8,3.7-4.3v-1.6   C146.4,15.8,144.2,17.1,144.2,19.2z"/>
	<path class="st0" d="M161.8,19c0.4,1.7,2,2.6,4.2,2.6c1.9,0,3-0.9,3-2c0-1.6-1.5-1.5-4.2-2.1c-4.3-0.9-6.5-2.3-6.5-5.7   c0-3.4,2.8-6,7.4-6c3.7,0,6.3,1.7,7.4,4.8l-4.1,0.8c-0.6-1.5-1.7-2.1-3.5-2.1c-1.7,0-2.6,0.6-2.6,1.8c0,1.6,1.8,1.5,5,2.2   c4,0.9,5.9,2.3,5.9,5.5c0,3.6-3,6.2-8.2,6.2c-4.2,0-7.2-2.1-8-5.5L161.8,19"/>
	<polyline class="st0" points="188.1,0 193.4,0 193.4,24.7 188.1,24.7 188.1,0  "/>
	<path class="st0" d="M81.3,39.6c0.8-1.3,1.6-2.2,2.7-2.8c1-0.6,2.2-0.9,3.5-0.9c1.1,0,2,0.2,2.8,0.7c0.8,0.4,1.4,1.1,1.8,2.1   c0.5,1,0.7,2,0.7,3.2v8.3c0,0.6,0.1,1.1,0.4,1.3c0.3,0.3,0.7,0.4,1.4,0.4h1.2v1.3h-8.9v-1.3h0.8c0.8,0,1.3-0.1,1.7-0.4   c0.3-0.3,0.5-0.6,0.5-1.1V43c0-1.6-0.2-2.7-0.7-3.5c-0.7-1.1-1.7-1.6-3-1.6c-1.3,0-2.5,0.5-3.4,1.6c-0.9,1.1-1.4,2.5-1.4,4.3v6.3   c0,0.6,0.1,1.1,0.4,1.3c0.3,0.3,0.7,0.4,1.4,0.4h1.2v1.3h-9.1v-1.3h1.2c0.6,0,1-0.1,1.3-0.4c0.3-0.2,0.5-0.5,0.5-0.9v-11   c0-0.7-0.2-1.3-0.6-1.7c-0.4-0.4-0.9-0.6-1.7-0.6H75v-1.2l6-0.3L81.3,39.6"/>
	<path class="st0" d="M96.1,36.2l6.8-0.2v14.6c0,0.4,0.1,0.7,0.3,0.9c0.3,0.2,0.6,0.4,1.1,0.4h1.9v1.3h-9.7v-1.3h1.8   c0.5,0,0.9-0.1,1.2-0.4c0.2-0.3,0.4-0.6,0.4-1.1V39.5c0-0.7-0.2-1.2-0.6-1.5c-0.4-0.3-1-0.5-1.7-0.5h-1.4V36.2 M100.8,29   c0.5,0,1,0.2,1.4,0.6c0.4,0.4,0.6,0.9,0.6,1.5c0,0.5-0.2,1-0.6,1.4c-0.4,0.4-0.9,0.6-1.4,0.6c-0.6,0-1-0.2-1.4-0.6   c-0.4-0.4-0.6-0.9-0.6-1.4c0-0.5,0.2-1,0.6-1.4C99.8,29.2,100.3,29,100.8,29z"/>
	<path class="st0" d="M171.3,36.2l6.8-0.2v14.6c0,0.4,0.1,0.7,0.3,0.9c0.3,0.2,0.6,0.4,1.1,0.4h1.9v1.3h-9.7v-1.3h1.8   c0.5,0,0.9-0.1,1.2-0.4c0.2-0.3,0.4-0.6,0.4-1.1V39.5c0-0.7-0.2-1.2-0.6-1.5c-0.4-0.3-1-0.5-1.7-0.5h-1.4V36.2 M176.1,29   c0.5,0,1,0.2,1.4,0.6c0.4,0.4,0.6,0.9,0.6,1.5c0,0.5-0.2,1-0.6,1.4c-0.4,0.4-0.9,0.6-1.4,0.6c-0.6,0-1-0.2-1.4-0.6   c-0.4-0.4-0.6-0.9-0.6-1.4c0-0.5,0.2-1,0.6-1.4C175.1,29.2,175.6,29,176.1,29z"/>
	<path class="st0" d="M105,36.1h8.4v1.3c-1.1,0-1.8,0.1-2.1,0.3c-0.3,0.2-0.5,0.4-0.5,0.7c0,0.3,0.1,0.5,0.2,0.8l4.5,10.1l4.1-9.7   c0.1-0.2,0.1-0.3,0.1-0.5c0-0.9-0.9-1.4-2.6-1.6v-1.3h7.1v1.3c-0.7,0.1-1.3,0.3-1.7,0.6c-0.4,0.3-0.8,0.7-1,1.3l-6.3,14.5h-1   l-6.6-14.9c-0.2-0.5-0.5-0.9-0.9-1.1c-0.3-0.2-0.9-0.3-1.6-0.3V36.1"/>
	<path class="st0" d="M139.1,44.7h-12.3c0.1,2.6,0.5,4.4,1.5,5.5c1.1,1.2,2.4,1.8,4,1.8c2.4,0,4.3-1.3,5.8-4l1.2,0.5   c-1.8,3.4-4.3,5.1-7.7,5.1c-2.3,0-4.2-0.8-5.8-2.5c-1.6-1.7-2.3-3.8-2.3-6.3c0-2.8,0.8-5,2.3-6.7c1.5-1.7,3.4-2.6,5.7-2.6   c1.6,0,3.1,0.4,4.3,1.3c1.2,0.8,2.1,2.1,2.7,3.7C138.9,41.6,139.1,43,139.1,44.7 M126.8,43.4h7.5c0.4,0,0.8-0.1,1-0.4   c0.2-0.3,0.4-0.8,0.4-1.5c0-1.3-0.4-2.5-1.3-3.4c-0.8-0.9-1.8-1.4-3-1.4c-1.3,0-2.4,0.6-3.3,1.7C127.3,39.5,126.9,41.2,126.8,43.4z   "/>
	<path class="st0" d="M157.2,46.8c0.8,2.1,1.6,3.6,2.6,4.4c1,0.8,2.2,1.2,3.6,1.2c1.3,0,2.3-0.3,3.1-0.9c0.7-0.6,1.1-1.3,1.1-2.2   c0-0.5-0.1-1-0.4-1.3c-0.3-0.4-0.6-0.7-1.1-0.9c-0.5-0.2-1.7-0.5-3.6-0.8c-1.8-0.4-3.1-0.8-3.9-1.1c-0.7-0.4-1.3-1-1.7-1.7   c-0.4-0.7-0.6-1.5-0.6-2.3c0-1.2,0.4-2.4,1.2-3.4c1.1-1.3,2.6-1.9,4.5-1.9c1.5,0,2.8,0.5,4.1,1.4l1.2-1.3h0.7l0.5,6.1h-1.2   c-0.5-1.8-1.3-3-2.2-3.8c-0.9-0.8-2-1.2-3.4-1.2c-1.2,0-2.1,0.3-2.7,0.9c-0.7,0.6-1,1.3-1,2.1c0,0.7,0.3,1.3,0.9,1.8   c0.6,0.5,1.8,0.9,3.5,1.2c2,0.3,3.3,0.6,3.9,0.9c1,0.4,1.8,0.9,2.3,1.7c0.5,0.8,0.8,1.7,0.8,2.8c0,1.5-0.6,2.8-1.8,3.8   c-1.2,1-2.7,1.6-4.5,1.6c-1.7,0-3.2-0.6-4.7-1.7l-1.3,1.5h-1l-0.4-6.7H157.2"/>
	<path class="st0" d="M194,36.1h8.2v1.3h-0.8c-0.7,0-1.2,0.1-1.5,0.3c-0.3,0.2-0.4,0.4-0.4,0.8c0,0.2,0,0.3,0.1,0.5l4.8,10.2   l3.6-8.4c0.3-0.6,0.4-1.2,0.4-1.8c0-0.4-0.2-0.8-0.5-1c-0.4-0.2-1.1-0.4-2.1-0.5v-1.3h7.1v1.3c-1.3,0.1-2.2,0.7-2.7,1.8l-6.4,14.7   c-1.1,2.5-2.2,4.2-3.3,5.1c-1.1,0.9-2.3,1.4-3.5,1.4c-0.9,0-1.6-0.2-2.2-0.7c-0.6-0.5-0.8-1.1-0.8-1.8c0-0.5,0.2-1,0.5-1.3   c0.3-0.4,0.8-0.5,1.3-0.5c0.5,0,0.9,0.2,1.2,0.5c0.3,0.3,0.5,0.7,0.5,1.1c0,0.1,0,0.3-0.1,0.5c0,0.2-0.1,0.3-0.1,0.4   c0,0.3,0.2,0.4,0.6,0.4c0.4,0,0.9-0.1,1.4-0.4c0.5-0.3,1-0.7,1.4-1.4c0.4-0.6,1.2-2.1,2.3-4.3l-6.5-13.8c-0.2-0.5-0.5-0.8-0.9-1.1   c-0.3-0.2-0.9-0.4-1.5-0.5V36.1"/>
	<polyline class="st0" points="52.1,0 58.8,0 68.2,15.2 68.2,0 73.4,0 73.4,24.7 67.8,24.7 57.4,7.5 57.3,24.7 52.1,24.7 52.1,0     "/>
	<path class="st0" d="M49,28.4h11.2v1.3h-1.9c-0.7,0-1.1,0.1-1.4,0.3c-0.3,0.2-0.4,0.6-0.4,1v13.5c0,1.6,0.1,2.8,0.4,3.6   c0.4,1.2,1.2,2.2,2.3,2.9c1.1,0.7,2.5,1.1,4.3,1.1c2.4,0,4.3-0.6,5.6-1.9c1.3-1.3,1.9-3,1.9-5.1V34.4c0-1.1-0.1-1.9-0.2-2.5   c-0.2-0.6-0.4-1-0.7-1.3c-0.3-0.3-0.6-0.5-1.1-0.7c-0.4-0.2-1.2-0.2-2.2-0.2v-1.3H77v1.3h-0.7c-1.1,0-2,0.3-2.5,0.9   c-0.6,0.6-0.8,1.5-0.8,2.7v11.5c0,2.9-0.8,5.1-2.5,6.6c-1.9,1.7-4.3,2.6-7.4,2.6c-2.7,0-4.8-0.4-6.3-1.1c-1.5-0.8-2.6-1.8-3.3-3.3   c-0.5-1.1-0.8-2.4-0.8-4.1V31.1c0-0.4-0.1-0.7-0.4-1c-0.3-0.2-0.7-0.4-1.3-0.4H49V28.4"/>
	<path class="st0" d="M185.8,20.9c-0.6,0.1-1.1,0.2-1.6,0.2c-1.8,0-2.2-0.8-2.2-2.9V10h3.8V6.4H182V1.1l-5.3,1v4.3h-2.4V10h2.4v8.8   c0,4.5,1.7,6.4,6,6.4c1,0,2-0.1,3.1-0.3V20.9"/>
	<path class="st0" d="M192.9,46.6c-0.1,1.8-0.4,3.1-1,3.9c-0.6,0.8-1.3,1.2-2.1,1.2c-0.7,0-1.3-0.3-1.7-0.8   c-0.4-0.5-0.7-1.2-0.7-2.2V37.6h5.3v-1.5h-5.3V29h-1.2c-0.1,2.4-0.7,4.2-1.7,5.6c-0.7,0.9-1.8,1.5-3.2,1.7v1.3h3v11.6   c0,1.3,0.4,2.3,1.2,3.1c0.8,0.8,1.9,1.2,3.4,1.2c1.5,0,2.8-0.6,3.8-1.7c1-1.1,1.5-2.8,1.6-5.1H192.9"/>
	<path class="st0" d="M152.7,35.5c-3,0-5.5,3.5-6.5,7.4v-7l-6.2,0.3v1.3h1.5c0.6,0,1.1,0.2,1.5,0.6c0.3,0.4,0.5,1,0.5,1.8v10.8   c0,0.3-0.1,0.6-0.4,0.8c-0.3,0.2-0.7,0.3-1.3,0.3h-1.7v1.3h10.6v-1.3h-2.2c-0.7,0-1.2-0.1-1.5-0.3c-0.3-0.2-0.4-0.5-0.4-0.9v-3.2   c0-3.3,1.4-8.9,4.2-8.9c0.8,0,0.6,1.2,2.1,1.2c1.2,0,2.1-0.9,2.1-2.1C155,36.3,153.9,35.5,152.7,35.5"/>
	<path class="st0" d="M0.7,0c0,0,0,14.6,0,21.7c0,20.5,23,32.3,23,32.3s23-11.7,23-32.3c0-7.1,0-21.7,0-21.7H0.7"/>
	<g>
		<path class="st1" d="M36.3,36.6c0-1.2-0.2-2.5-0.5-3.6c-3.4,2.2-6.8,2.8-8.8,1.6c0.1-0.1,0.2-0.3,0.2-0.5c0-0.5-0.4-0.8-0.8-0.8    c-0.2,0-0.4,0.1-0.5,0.2c-1.2-2-0.6-5.4,1.6-8.8C26.2,24.2,25,24,23.7,24l0,0c-1.2,0-2.5,0.2-3.6,0.5c2.2,3.4,2.8,6.8,1.6,8.8    c-0.1-0.1-0.3-0.2-0.5-0.2c-0.5,0-0.8,0.4-0.8,0.8c0,0.2,0.1,0.4,0.2,0.5c-2,1.2-5.4,0.6-8.8-1.6c-0.4,1.2-0.5,2.4-0.5,3.6h0    c0,1.2,0.2,2.5,0.5,3.6c3.4-2.2,6.8-2.8,8.8-1.6c-0.1,0.1-0.2,0.3-0.2,0.5c0,0.5,0.4,0.8,0.8,0.8c0.2,0,0.4-0.1,0.5-0.2    c1.2,2,0.6,5.4-1.6,8.8c1.2,0.4,2.4,0.5,3.6,0.5l0,0c1.2,0,2.5-0.2,3.6-0.5c-2.2-3.4-2.8-6.8-1.6-8.8c0.1,0.1,0.3,0.2,0.5,0.2    c0.5,0,0.8-0.4,0.8-0.8c0-0.2-0.1-0.4-0.2-0.5c2-1.2,5.4-0.6,8.8,1.6C36.1,39,36.3,37.8,36.3,36.6L36.3,36.6"/>
		<path class="st0" d="M26,36.6c0,1.3-1,2.3-2.3,2.3c-1.3,0-2.3-1-2.3-2.3c0-1.3,1-2.3,2.3-2.3C25,34.3,26,35.3,26,36.6"/>
	</g>
	<rect x="2" y="1.3" class="st2" width="43.4" height="20.3"/>
	<path class="st3" d="M27.3,15.8c0.2,0.2,0.1,0.3,0,0.4c-0.1,0.1-1.2,0.8-1.9,0.6c-0.5-0.2-0.5-1.1-1.3-1.5   c-0.6-0.3-1.3,0.2-1.3,0.2c1.1,0,1.4,1.5,1.4,1.5c-1.6-1.3-3.1-0.4-3.3,0.4c1.4-0.9,2.6,0.3,2.6,0.3c-0.5,0.1-1.6,0.9-0.8,2.2   c0.2-1.5,1.7-1.8,1.7-1.8c-0.1,0.7,0.5,2.1,1.7,1.8c-0.9-0.6-0.7-1.2-0.7-1.5c0-0.2,0.2-0.4,0.5-0.4c1.7-0.2,1.7,1.1,1.7,1.1   c0.5,0,1.7-1.7,1.7-2.6c0.5,0.7,1.7,1.1,2.6,0.5c-1.2-0.2-1.6-1.3-1.7-1.5c-0.1-0.2-0.3-1.6-0.9-2.1c-0.8-0.8-1.9-0.2-2.6,0.4   c-0.2,0.2-0.8,1.2-0.1,1.5C27,15.6,27.1,15.7,27.3,15.8"/>
	<path class="st3" d="M9,12.4c-1.8,0-3.7-3.5-3.9-3.8C6.1,8.5,6,8,5.9,7.7C5.6,6.5,3.3,7.6,3.1,7.8c0.1-1.2,1.3-1.6,2.1-1.5l0,0   C5.1,4.6,3.5,4.5,3.5,4.5c1.4-1,2.3,0.3,2.6,1.3c1.4-1,0.1-2.4-0.2-2.6c0,0,1.1-0.1,1.6,1C7.8,5.3,7.3,6,7.3,6s0.4,0,0.6-0.2   c0.8-0.5,0.7-1.3,0.7-1.4c0,0,0.6,0.4,0.5,1c0,0.5-0.5,0.8-0.7,1.1C8.2,6.8,7.7,7.3,8.3,9c0.3,0.8,0.7,1.5,1,1.6   C9.2,11,8.8,11.4,9,12.4"/>
	<path class="st3" d="M5.1,15c-1.1,0.1-3,0.5-2,2.5c0-1.4,1.9-1.5,2.2-1.4c-0.9,1.5,0.1,2.9,1,2.9c-0.8-0.7-0.1-1.6,0-1.9   c0.1-0.2,0.4-0.4,0.7-0.3c1,0.3,0.3,1.1,0.3,1.1c2.2,1,3.2,0.1,3.6-0.4c0,0,0.7,0.7,0,1.1c0.4,0.2,2.5,0.3,3.2-0.7   c0.3,0.8,2.7,0.8,3.2,0.4c0,0-0.5-0.3-0.5-0.7c0-0.6,0.7-1.1,1.5-1.5c1-0.4,2.6-0.6,4.2-1.4c3-1.4,6.7-4.1,7.9-2.4   c0.6,0.8,0.5,1.7,1.1,2.2c0.6,0.6,1.6,0.3,2.2,0.2c1.5-0.2,3.6-0.4,4.8-0.5c1.3-0.1,1.6,0.9,1.7,1c0.1,0.3,0,0.5-0.2,0.4   c-0.4,0-1.2-0.2-1.7,0c-0.6,0.4-0.5,1.3-0.5,1.3c0.5-0.9,2-0.8,2.6-0.7c-0.5,0.4-1.4,2.1-0.1,2.8c-0.3-1.3,0.9-2.2,0.9-2.2   c0.1,0.4,0.9,1.1,2.6,1c-1.8-0.6-1.5-1.5-1.5-1.5c0.6,0.3,1.9,0.1,2.5-1.3c-2.1,1.3-2.6,0.1-2.7-0.1c-0.4-0.7,0.6-0.8,0.6-0.8   c-0.2-0.4-3.1-2.2-1.7-2.8c-0.5-0.3-1.7-0.2-2.7,0.6c0-0.2,0-0.9-0.3-1.2c0,0-1.7,1.2-3.1,1c-1.4-0.2-0.8-2.2-0.8-2.2   s3.5,0.4,4.8-0.2c1.3-0.6,1.3-1.5,2.4-2.1c0.9-0.5,1.9-0.1,1.9-0.1C43,6.6,41.3,5.9,40,7.3c0,0-0.1-2.5-3.2-2.2   c-1.9,0.2-3.4,1-5.3,1.3c-1.9,0.4-3.8,0.7-5,0.7c-1.2,0-3-0.3-3.1-1.7c-0.1-0.8,0.5-1.1,1.1-1.1c0.9,0,2.2,0.5,3.3,0.9   c0.7,0.3,1.5,0.3,1.9,0.3c1.1,0,2.5-0.5,3.2-0.8c0.7-0.3,1.2-0.4,2.6-0.3C34.9,3.8,32,2.5,30,2.6c-1.9,0.1-2,1-3.9,0.9   c-1.9-0.1-3.5,0.2-3.6,1.6c-0.1,1.4,1.2,2.9,4.2,2.7C28,7.8,32.7,7,33.6,6.7c1.2-0.4,5.9-1.3,5,1c-0.2,0.5-0.7,1-2.1,1   s-3.1-0.4-3.5-0.5c-0.5-0.1-1.7-0.2-2.9-0.1c-1.1,0.2-8.8,1.3-10.1,1.4c0,0.5-0.3,1.9,1,2.8c-0.6,0.3-1.7,0.9-2.8,0.4   c-0.1,0.4,0.4,1,0.9,1.6c-0.4,0.1-2.1,0.9-2.9,0.4c-0.3,0.6-1.4,2.2-3.8,1.7c0.2-0.1,0.1-0.9-0.5-1.1c-0.6,0.1-0.7,0.4-3.1,0.1   c-0.7-0.1-1.3-0.3-1.5-0.8c-0.2-0.5,0.1-1.2-0.1-1.6c-0.3-0.8-1.5-0.7-1.5-0.7c1.1,0.8,0.4,2,0.4,2c-1-1-2.6-2-3.1-0.2   C4.3,13.5,5.1,15,5.1,15"/>
	<path class="st3" d="M20.8,6c-0.6-1.2-2-0.3-2-0.3c0.4-0.4,0-1.8-0.4-2c0,0.7-0.6,0.9-1,0.8c-0.5-0.1-0.3-0.9-0.2-1.2   c-0.4,0-1.3-0.1-1.9,0.8c-0.2-1.1-1.1-1.5-2.1-1.3c1.1,1.2-1.3,2.6-2.1,2.2c-0.4,0.8,0.9,1.7,1.1,1.5c-0.7,1-1.8,0.8-2.4,0.6   c0,0.4,0.5,1.4,1.4,1.4C10.7,9,9.7,9,9.3,8.9c-0.1,0.7,1,1.3,1.3,1.4c-0.9,1.5-0.6,3.3-0.1,4l0.3,0.6c0.8-1.5,2.5-0.9,2.2,0.5   c1.6,0.2,2.4-1.2,2.8-2.1c0.6,0.6,1.3,0.7,1.7,0.6c-0.5-1-0.3-2-0.1-2.4c0.6,0.5,1.4,0.7,1.8,0.5c-0.5-0.7-0.5-2.5-0.4-3.2   c0.4,0.2,1.2,0.5,1.6-0.4C19.7,8.3,19.6,6,20.8,6z M13.4,6.2c0.1-0.1,0.3-0.3,0.4-0.2c0.2,0.2,0.2,0.4,0.5,0.7   c0.2,0.2,0.6,0.3,0.7,0.4c0.1,0.4-0.6,0.9-1.4,0.1C13.3,6.9,13.1,6.5,13.4,6.2z M15.2,11.1c-0.8,1.2-1.7,0.6-1.7,0.6   s-1-0.4-0.5-1.7c-0.6-0.4-0.4-1-0.2-1.1c0.1,0.2,0.1,0.5,0.7,0.8c0.5,0.3,0.7,0.1,0.8,0c0.1-0.2-0.2-0.4-0.3-0.6   c-0.2-0.2-0.2-0.5-0.1-0.7c0.2-0.2,0.5-0.2,0.6-0.1c-0.7,0.1,0.2,0.7,0.4,0.8C15,9.2,16,9.6,15.7,9c0.2,0,0.3,0.3,0.3,0.5   c0,0.2-0.3,0.4-0.6,0.3c-0.3,0-0.6-0.1-0.7,0.1c-0.1,0.1,0,0.4,0.5,0.7c0.5,0.3,0.7,0.1,1,0C16.2,10.8,15.9,11.4,15.2,11.1z    M17.9,8.5c-0.1,0.3-0.5,0.5-1,0.4c-1-0.2-1-1-0.7-1.1c0.1,0.1,0.4,0.3,0.7,0.4c0.4,0.1,0.6,0,0.9,0C17.9,8.1,17.9,8.3,17.9,8.5z"/>
</g>
</svg>